<svg version="1.1" xmlns="http://www.w3.org/2000/svg" xmlns:xlink="http://www.w3.org/1999/xlink" width="500" height="500"><g data-paper-data="{&quot;description&quot;:&quot;Logo for ICU\n============\n\nThis logo was generated by MarkMaker at http://emblemmatic.org/markmaker/ and may be composed of elements designed by others.\n\nThe font is Hind Jalandhar SemiBold designed by Indian Type Foundry and released under the OFL license via Google Fonts: https://www.google.com/fonts/specimen/Hind%20Jalandhar. The font includes this copyright statement: Copyright (c) 2015 Indian Type Foundry (info@indiantypefoundry.com)\n\nMarkMaker uses semantic data from the Princeton University WordNet database http://wordnet.princeton.edu and font descriptions from Google Fonts https://www.google.com/fonts.&quot;}" fill="#0b052e" fill-rule="nonzero" stroke="none" stroke-width="1" stroke-linecap="butt" stroke-linejoin="miter" stroke-miterlimit="10" stroke-dasharray="" stroke-dashoffset="0" font-family="none" font-weight="none" font-size="none" text-anchor="none" style="mix-blend-mode: normal"><g data-paper-data="{&quot;elementType&quot;:&quot;logo&quot;}"><g data-paper-data="{&quot;elementType&quot;:&quot;text&quot;}"><g data-paper-data="{&quot;baseline&quot;:68.3,&quot;elementType&quot;:&quot;row&quot;}"><g data-paper-data="{&quot;baselineProportion&quot;:0.9869942196531791,&quot;fontSize&quot;:100,&quot;baseline&quot;:68.3,&quot;elementType&quot;:&quot;word&quot;}"><path d="M81.53942,334.35544h-31.53942v-168.71089h31.53942z" data-paper-data="{&quot;elementType&quot;:&quot;letter&quot;,&quot;baseline&quot;:67.4,&quot;baselineProportion&quot;:1,&quot;fontSize&quot;:100}"></path><path d="M222.21527,336.35795c-25.03129,0 -45.6821,-7.88486 -61.95244,-23.65457c-16.27034,-15.76971 -24.40551,-36.54568 -24.40551,-62.32791c0,-25.78223 8.05173,-46.72507 24.15519,-62.82854c16.10346,-16.10346 36.83771,-24.15519 62.20275,-24.15519c18.52315,0 32.95786,3.08719 43.30413,9.26158v30.78849c-12.68252,-7.34251 -26.70004,-11.01377 -42.05257,-11.01377c-15.35252,0 -28.1602,5.21485 -38.42303,15.64456c-10.26283,10.4297 -15.39424,24.40551 -15.39424,41.92741c0,17.5219 5.13141,31.45599 15.39424,41.80225c10.26283,10.34627 23.48769,15.5194 39.67459,15.5194c16.1869,0 29.87067,-4.17188 41.05131,-12.51564v31.53942c-10.34627,6.67501 -24.86441,10.01252 -43.55444,10.01252z" data-paper-data="{&quot;elementType&quot;:&quot;letter&quot;,&quot;baseline&quot;:68.3,&quot;baselineProportion&quot;:0.9884225759768452,&quot;fontSize&quot;:100}"></path><path d="M450,269.52441c0,21.86066 -5.88235,38.50647 -17.64706,49.93742c-11.76471,11.43096 -27.78473,17.14643 -48.06008,17.14643c-20.27534,0 -36.37881,-5.63204 -48.31039,-16.89612c-11.93158,-11.26408 -17.89737,-27.40926 -17.89737,-48.43554v-105.63204h31.53942v105.38173c0,12.8494 3.17063,22.15269 9.51189,27.90989c6.34126,5.7572 14.60159,8.63579 24.78098,8.63579c23.02879,0 34.54318,-12.59908 34.54318,-37.79725v-104.13016h31.53942z" data-paper-data="{&quot;elementType&quot;:&quot;letter&quot;,&quot;baseline&quot;:67.4,&quot;baselineProportion&quot;:0.986822840409956,&quot;fontSize&quot;:100}"></path></g></g></g></g></g></svg>